<?xml version="1.0" encoding="UTF-8" standalone="no"?>
<svg
   xmlns:dc="http://purl.org/dc/elements/1.1/"
   xmlns:cc="http://creativecommons.org/ns#"
   xmlns:rdf="http://www.w3.org/1999/02/22-rdf-syntax-ns#"
   xmlns:svg="http://www.w3.org/2000/svg"
   xmlns="http://www.w3.org/2000/svg"
   xmlns:sodipodi="http://sodipodi.sourceforge.net/DTD/sodipodi-0.dtd"
   xmlns:inkscape="http://www.inkscape.org/namespaces/inkscape"
   version="1.0"
   width="385.000000pt"
   height="117.000000pt"
   viewBox="0 0 385.000000 117.000000"
   preserveAspectRatio="xMidYMid meet"
   id="svg2"
   inkscape:version="0.91 r13725"
   sodipodi:docname="fairgreen_logo.svg">
  <metadata
     id="metadata40">
    <rdf:RDF>
      <cc:Work
         rdf:about="">
        <dc:format>image/svg+xml</dc:format>
        <dc:type
           rdf:resource="http://purl.org/dc/dcmitype/StillImage" />
      </cc:Work>
    </rdf:RDF>
  </metadata>
  <defs
     id="defs38" />
  <sodipodi:namedview
     pagecolor="#ffffff"
     bordercolor="#666666"
     borderopacity="1"
     objecttolerance="10"
     gridtolerance="10"
     guidetolerance="10"
     inkscape:pageopacity="0"
     inkscape:pageshadow="2"
     inkscape:window-width="1280"
     inkscape:window-height="962"
     id="namedview36"
     showgrid="false"
     inkscape:zoom="2.4"
     inkscape:cx="240.625"
     inkscape:cy="73.125"
     inkscape:window-x="-8"
     inkscape:window-y="-8"
     inkscape:window-maximized="1"
     inkscape:current-layer="svg2" />
  <g
     transform="translate(0.000000,117.000000) scale(0.100000,-0.100000)"
     fill="#000000"
     stroke="none"
     id="g4"
     style="fill:#338000;stroke:#d4ff2a">
    <path
       d="M1155 1137 c-83 -34 -89 -58 -7 -27 93 35 192 20 269 -40 34 -26 51 -26 27 1 -43 47 -103 72 -183 76 -45 1 -88 -2 -106 -10z"
       id="path6"
       style="fill:#338000;stroke:#d4ff2a" />
    <path
       d="M1163 1055 c-18 -8 -33 -18 -33 -24 0 -5 14 -3 31 6 70 35 150 26 209 -24 32 -26 43 -17 12 10 -49 45 -155 60 -219 32z"
       id="path8"
       style="fill:#338000;stroke:#d4ff2a" />
    <path
       d="M1184 974 c-19 -15 -19 -15 1 -6 11 5 27 12 35 15 13 5 13 6 -1 6 -8 1 -24 -6 -35 -15z"
       id="path10"
       style="fill:#338000;stroke:#d4ff2a" />
    <path
       d="M1268 983 c7 -3 16 -2 19 1 4 3 -2 6 -13 5 -11 0 -14 -3 -6 -6z"
       id="path12"
       style="fill:#338000;stroke:#d4ff2a" />
    <path
       d="M1320 966 c0 -2 8 -10 18 -17 15 -13 16 -12 3 4 -13 16 -21 21 -21 13z"
       id="path14"
       style="fill:#338000;stroke:#d4ff2a" />
    <path
       d="M1206 908 c-33 -47 -10 -98 43 -98 33 0 48 14 55 52 10 59 -64 94 -98 46z"
       id="path16"
       style="fill:#338000;stroke:#d4ff2a" />
    <path
       d="M195 795 c-73 -34 -100 -74 -120 -184 -9 -46 -15 -84 -13 -85 2 0 76 0 165 2 l162 3 16 52 c41 127 99 178 201 181 29 0 55 -2 59 -5 3 -4 3 -22 0 -41 -6 -31 -10 -34 -40 -34 -44 0 -70 -25 -95 -91 -11 -29 -20 -56 -20 -58 0 -3 20 -5 45 -5 46 0 53 -8 39 -44 -4 -11 -19 -16 -49 -16 -51 0 -45 12 -79 -154 -14 -66 -30 -124 -36 -130 -36 -36 -29 -36 683 -36 638 -1 690 -2 663 -17 -23 -12 -47 -14 -102 -10 l-73 5 -15 -44 -15 -44 42 -11 c58 -15 194 -7 235 15 18 9 47 37 65 62 l31 44 845 0 c464 0 841 3 837 7 -11 11 48 10 -850 12 l-825 1 10 33 c16 57 89 459 84 467 -8 14 -92 30 -153 30 -174 0 -305 -123 -305 -285 -1 -88 35 -145 101 -164 38 -11 96 1 133 28 16 12 31 21 33 21 8 0 -5 -60 -20 -98 l-13 -32 -686 0 -686 0 7 23 c4 12 19 76 33 142 l26 120 47 3 c47 3 47 3 55 45 l9 42 -43 3 c-47 3 -49 8 -29 55 20 48 49 69 87 65 32 -3 33 -1 42 40 13 65 7 72 -61 72 -127 0 -192 -52 -232 -187 l-13 -43 -149 0 c-138 0 -149 1 -144 18 3 9 8 38 12 65 8 56 37 103 83 134 l34 23 474 0 c370 0 475 -3 478 -12 2 -7 -8 -137 -23 -288 -24 -231 -25 -302 -8 -279 1 2 43 132 93 289 l90 285 1212 3 1213 2 34 -34 c43 -43 43 -54 0 -299 -35 -200 -44 -222 -106 -265 -26 -17 -29 -22 -14 -22 26 0 82 52 98 92 7 18 28 123 47 233 l33 200 -20 40 c-39 81 62 75 -1291 75 l-1203 0 -14 -22 c-7 -13 -44 -120 -81 -238 -62 -197 -85 -261 -84 -235 0 6 10 109 23 230 19 177 21 224 11 240 -12 19 -24 20 -481 22 -385 2 -474 0 -499 -12z m1708 -202 c7 -11 -20 -149 -34 -176 -36 -70 -103 -91 -135 -42 -29 45 6 160 62 204 26 21 98 30 107 14z"
       id="path18"
       style="fill:#338000;stroke:#d4ff2a" />
    <path
       d="M868 690 c-106 -18 -200 -96 -238 -197 -23 -63 -26 -158 -6 -207 38 -92 160 -112 246 -40 l30 26 0 -31 0 -31 69 0 68 0 6 98 c3 53 18 155 32 225 14 71 23 132 20 137 -11 18 -158 31 -227 20z m165 -19 c21 -5 41 -11 43 -14 2 -2 -7 -64 -21 -138 -14 -74 -28 -169 -32 -211 l-6 -78 -54 0 -54 0 7 45 c3 25 2 45 -2 45 -5 0 -22 -16 -38 -36 -80 -100 -219 -77 -244 41 -20 95 17 203 93 273 78 71 195 99 308 73z"
       id="path20"
       style="fill:#338000;stroke:#d4ff2a" />
    <path
       d="M824 558 c-70 -61 -99 -183 -54 -228 58 -58 142 29 165 170 3 19 7 47 9 63 5 26 3 27 -39 27 -36 0 -52 -6 -81 -32z m98 -18 c-6 -70 -41 -168 -68 -189 -50 -40 -87 -19 -86 48 1 73 41 142 97 167 46 21 60 14 57 -26z"
       id="path22"
       style="fill:#338000;stroke:#d4ff2a" />
    <path
       d="M1535 686 c-16 -8 -40 -23 -52 -35 -13 -12 -23 -18 -24 -14 -1 4 -2 17 -3 28 -1 18 -8 20 -65 20 l-65 0 -17 -120 c-10 -66 -27 -167 -38 -225 -12 -58 -21 -111 -21 -117 0 -9 22 -13 74 -13 l75 0 10 55 c6 30 16 81 22 113 21 107 59 157 130 168 35 6 36 7 47 69 7 34 12 67 12 74 0 15 -48 13 -85 -3z m65 -16 c0 -5 -5 -32 -11 -60 -9 -44 -14 -50 -36 -50 -73 0 -122 -76 -149 -232 l-17 -98 -59 0 c-43 0 -58 4 -58 14 0 8 9 58 20 112 17 82 49 279 50 307 0 4 23 7 51 7 l52 0 -7 -52 -6 -53 37 44 c36 43 80 70 116 71 9 0 17 -4 17 -10z"
       id="path24"
       style="fill:#338000;stroke:#d4ff2a" />
    <path
       d="M2305 681 c-17 -10 -39 -30 -48 -45 -24 -35 -34 -33 -29 8 4 32 2 33 -35 39 -71 12 -71 12 -78 -50 -3 -32 -17 -116 -30 -188 -13 -72 -27 -147 -31 -167 l-6 -38 64 0 65 0 22 112 c12 62 31 128 42 148 24 42 65 70 103 70 18 0 27 6 31 23 3 12 9 41 14 65 l9 42 -32 0 c-17 0 -45 -8 -61 -19z"
       id="path26"
       style="fill:#338000;stroke:#d4ff2a" />
    <path
       d="M2574 682 c-119 -49 -191 -181 -165 -303 27 -126 120 -171 284 -138 l57 12 0 52 0 53 -42 -15 c-55 -19 -124 -10 -155 19 -13 12 -23 27 -23 33 0 6 37 16 90 22 100 13 157 39 183 83 36 60 9 148 -54 182 -42 23 -120 23 -175 0z m114 -94 c35 -29 -8 -65 -87 -75 -59 -7 -66 5 -30 51 35 44 80 53 117 24z"
       id="path28"
       style="fill:#338000;stroke:#d4ff2a" />
    <path
       d="M3015 688 c-32 -11 -91 -52 -113 -78 -7 -8 -25 -40 -39 -70 -74 -154 6 -310 159 -310 51 0 146 18 152 28 2 4 6 28 10 54 l7 46 -51 -15 c-69 -20 -133 -11 -160 24 -11 14 -20 29 -20 32 0 4 40 12 89 18 102 13 164 40 186 83 33 64 7 152 -55 182 -39 20 -118 22 -165 6z m104 -103 c7 -8 11 -21 8 -30 -9 -22 -72 -47 -111 -43 -25 2 -30 7 -28 23 11 61 88 90 131 50z"
       id="path30"
       style="fill:#338000;stroke:#d4ff2a" />
    <path
       d="M3471 666 l-51 -35 0 30 c0 29 -1 29 -55 29 -36 0 -57 -4 -59 -12 -5 -18 -76 -421 -76 -430 0 -5 29 -8 64 -8 l64 0 21 116 c35 186 81 258 149 233 19 -7 22 -16 22 -56 0 -27 -9 -95 -20 -153 -28 -149 -31 -140 43 -140 l63 0 27 143 c31 165 33 216 12 262 -32 66 -123 75 -204 21z"
       id="path32"
       style="fill:#338000;stroke:#d4ff2a" />
    <path
       d="M66 457 c-33 -24 -60 -222 -36 -267 15 -27 64 -40 155 -40 93 0 128 17 138 67 3 15 17 79 30 141 l25 112 -147 0 c-105 0 -152 -4 -165 -13z m284 -16 c0 -17 -9 -59 -45 -218 -10 -44 -31 -53 -126 -53 -143 0 -158 18 -135 163 20 124 21 125 181 126 119 2 125 1 125 -18z"
       id="path34"
       style="fill:#338000;stroke:#d4ff2a" />
  </g>
  <path
     style="fill:#ddff55;fill-opacity:1;stroke:#d4ff2a;stroke-width:0.41666666"
     d="m 10.934424,123.85987 c -3.2373149,-0.86409 -5.0987298,-2.36841 -5.7264038,-4.62785 -1.219639,-4.39034 0.6858552,-20.020612 3.0776194,-25.244912 1.9212384,-4.196539 4.5369214,-4.771155 21.7388894,-4.775627 9.645813,-0.0025 12.267901,0.113875 12.8949,0.572348 0.733685,0.536483 0.752943,0.794796 0.284096,3.810538 -0.876103,5.63532 -5.495673,25.761383 -6.261772,27.280633 -0.497544,0.98668 -1.402109,1.79523 -2.796899,2.5 -1.991088,1.00608 -2.374703,1.04499 -11.228187,1.13903 -7.730306,0.0821 -9.607851,-0.0204 -11.982243,-0.65416 z"
     id="path4170"
     inkscape:connector-curvature="0"
     transform="scale(0.8,0.8)" />
  <path
     style="fill:#ddff55;fill-opacity:1;stroke:#d4ff2a;stroke-width:0.41666666"
     d="m 220.72619,102.20879 c -3.49534,-1.0857 -5.42077,-5.01609 -4.9482,-10.100787 0.68936,-7.417286 5.67302,-16.560413 10.34718,-18.983161 1.61937,-0.839362 6.05983,-1.819836 8.27436,-1.827017 3.03224,-0.0098 3.49094,0.571715 3.17049,4.019582 -0.29833,3.209883 -1.96246,11.731742 -3.01764,15.453078 -1.73648,6.124056 -6.4693,11.069575 -11.04445,11.540795 -1.01269,0.1043 -2.26448,0.0582 -2.78174,-0.10249 z"
     id="path4172"
     inkscape:connector-curvature="0"
     transform="scale(0.8,0.8)" />
  <path
     style="fill:#ddff55;fill-opacity:1;stroke:#d4ff2a;stroke-width:0.41666666"
     d="m 319.42555,81.560913 c -0.78546,-0.94642 -0.34811,-2.262818 1.64597,-4.954342 2.56562,-3.462968 6.17314,-5.735512 9.09482,-5.729247 3.21711,0.0069 7.12533,2.5321 7.12533,4.603858 0,1.708888 -2.95637,3.98848 -6.7107,5.174472 -4.40484,1.391487 -10.35139,1.874049 -11.15542,0.905259 z"
     id="path4174"
     inkscape:connector-curvature="0"
     transform="scale(0.8,0.8)" />
  <path
     style="fill:#ddff55;fill-opacity:1;stroke:#d4ff2a;stroke-width:0.41666666"
     d="m 375.31159,81.830825 c -2.36605,-0.455578 -1.95576,-3.847329 0.85113,-7.03612 1.84753,-2.098906 3.14451,-2.879709 5.75935,-3.467225 5.66442,-1.27271 10.97658,3.464303 7.5571,6.738893 -2.81225,2.693082 -9.9214,4.582048 -14.16758,3.764452 z"
     id="path4176"
     inkscape:connector-curvature="0"
     transform="scale(0.8,0.8)" />
  <path
     style="fill:#ddff55;fill-opacity:1;stroke:#d4ff2a;stroke-width:0.41666666"
     d="m 99.070594,104.12007 c -1.694532,-0.81777 -2.778072,-3.83993 -2.736665,-7.632985 0.110867,-10.155792 5.902481,-18.989464 14.211081,-21.67549 4.2517,-1.3745 5.20193,0.247189 4.06283,6.933728 -1.26628,7.433141 -4.56216,16.476918 -7.09289,19.462657 -1.39266,1.64305 -4.74026,3.42809 -6.35527,3.38882 -0.63782,-0.0155 -1.577913,-0.23004 -2.089086,-0.47673 z"
     id="path4178"
     inkscape:connector-curvature="0"
     transform="scale(0.8,0.8)" />
  <path
     style="fill:#338000;fill-rule:evenodd;stroke:#338000;stroke-width:0.80000001px;stroke-linecap:butt;stroke-linejoin:miter;stroke-opacity:1;fill-opacity:1"
     d="m 362.66666,101 c 0.44445,-0.11111 0.88889,-0.22222 1.33334,-0.33334 0.11111,-0.11111 0.19278,-0.26305 0.33334,-0.33332 0.19876,-0.0994 0.50952,0.15713 0.66666,0 0.0786,-0.0786 -0.0497,-0.23396 0,-0.33334 0.33708,-0.67416 0.77356,-0.106888 1,-0.333336 0.0786,-0.07856 -0.0994,-0.28364 0,-0.333328 0.29814,-0.149072 0.66666,0 1,0"
     id="path4180"
     inkscape:connector-curvature="0" />
  <path
     style="fill:#ddff55;fill-opacity:1;stroke:#338000;stroke-width:0.41666666;stroke-opacity:1"
     d="m 445.83333,125.43456 c -3.66666,-0.16773 -50.41697,-0.40318 -103.88957,-0.52322 -53.4726,-0.12004 -97.30802,-0.30337 -97.41204,-0.4074 -0.10403,-0.10403 0.19553,-1.57247 0.66568,-3.26321 1.64037,-5.89899 8.02672,-39.885404 9.97308,-53.074063 0.92786,-6.287219 0.91797,-6.31584 -2.56032,-7.407402 -6.08854,-1.910715 -17.44455,-2.670697 -23.65183,-1.582858 -18.94754,3.320598 -31.72584,18.856407 -30.69887,37.323593 0.49349,8.87412 3.83908,14.65529 10.20923,17.6415 2.13384,1.0003 2.81199,1.10485 6.94798,1.07112 5.51612,-0.045 7.96723,-0.80833 12.81483,-3.99087 1.78599,-1.17254 3.37366,-2.00548 3.52817,-1.85097 0.41383,0.41383 -1.27602,7.41119 -2.8034,11.60839 l -1.32675,3.64583 -85.54619,0 -85.546188,0 0.953895,-3.46711 c 0.524646,-1.90692 2.31528,-9.73504 3.979184,-17.39584 1.663904,-7.660792 3.053516,-13.968438 3.088021,-14.016987 0.0345,-0.04855 2.261366,-0.263963 4.948579,-0.478696 6.504921,-0.519811 6.637933,-0.618505 7.779271,-5.772148 0.496666,-2.242654 0.986708,-4.379594 1.088983,-4.748757 0.145117,-0.523803 -0.240708,-0.729685 -1.756883,-0.9375 C 75.549633,77.6615 73.90465,77.540621 72.962679,77.539343 72.020704,77.538051 70.546875,77.341752 69.6875,77.103091 68.3357,76.727677 68.125,76.504357 68.125,75.446999 c 0,-1.747124 1.950642,-6.258373 3.707679,-8.574744 2.180442,-2.87457 4.404875,-3.913922 8.376613,-3.913922 3.947129,0 4.352875,-0.357723 5.248104,-4.626964 0.965275,-4.603299 0.939275,-7.286548 -0.08048,-8.306304 C 83.608333,48.256483 75.632912,48.002947 68.75,49.496499 c -4.800742,1.041735 -7.932675,2.771027 -11.480121,6.338738 -3.833492,3.855388 -5.944708,7.726235 -8.501061,15.586408 l -1.787138,5.495022 -17.741156,0 c -11.279117,0 -17.892898,-0.151857 -18.157755,-0.416915 -0.470775,-0.471132 1.200055,-10.792773 2.267666,-14.008629 1.63209,-4.916177 5.37387,-9.429885 10.734893,-12.949498 l 3.252254,-2.135166 53.622876,0.296519 c 51.708692,0.285934 63.660942,0.555681 64.213172,1.449206 0.4747,0.768081 -0.66072,15.56854 -3.0889,40.264483 -1.47469,14.998423 -1.8764,20.544653 -1.8764,25.906913 0,3.89166 0.11555,4.78858 0.64297,4.99097 0.35364,0.1357 0.7427,0.147 0.86459,0.0251 0.25987,-0.25988 7.14297,-21.593351 16.40174,-50.835586 3.61275,-11.410253 6.66552,-20.842795 6.78393,-20.961206 0.11841,-0.11841 68.2515,-0.358191 151.40687,-0.532846 L 467.5,47.692478 l 3.03742,2.945428 c 1.82291,1.76771 3.47087,3.828375 4.12154,5.153648 1.04275,2.123959 1.07529,2.410146 0.8535,7.5 -0.15334,3.517879 -0.93434,9.412168 -2.32988,17.583446 -5.61475,32.87658 -6.36,34.98213 -14.58754,41.2148 -4.20217,3.18327 -4.31679,3.2588 -5.26171,3.46653 -0.45833,0.10075 -3.83333,0.046 -7.5,-0.12177 z M 98.249162,120.69583 c 3.778578,-0.72295 7.978198,-2.7971 11.334168,-5.59781 l 2.5,-2.08637 0.12039,3.51501 0.12039,3.51501 8.73378,0 c 4.80358,0 8.73652,-0.0469 8.73988,-0.10417 0.96321,-16.4438 1.85733,-23.864029 4.9748,-41.28515 1.11403,-6.225459 2.08969,-12.444017 2.16814,-13.819017 l 0.14262,-2.5 -1.49138,-0.729506 c -2.62823,-1.285594 -9.55338,-2.094074 -18.30028,-2.136477 -7.24395,-0.03512 -8.50603,0.06411 -11.63882,0.915109 -9.085783,2.46807 -17.721996,8.526869 -22.91705,16.077619 -7.526379,10.939217 -8.916296,29.825642 -2.786425,37.862432 3.1097,4.07709 8.202962,6.57614 14.076471,6.90673 0.61005,0.0343 2.510541,-0.2057 4.223316,-0.53341 z m 77.170958,-2.425 c 1.30864,-8.13023 4.9454,-24.925251 5.96693,-27.556009 2.96873,-7.64545 6.58779,-10.907912 13.8768,-12.509503 1.74928,-0.384365 3.46782,-1.019051 3.81898,-1.410415 0.80596,-0.898225 1.644,-4.215555 2.83181,-11.209504 1.1328,-6.670016 1.08251,-6.793732 -2.76187,-6.793732 -4.62346,0 -9.35096,2.000475 -14.00856,5.927821 -1.07998,0.910652 -2.16361,1.532116 -2.40807,1.381031 -0.24446,-0.151085 -0.44734,-1.060509 -0.45085,-2.020943 -0.003,-0.960433 -0.14795,-1.968887 -0.32098,-2.241009 -0.67393,-1.059873 -2.8751,-1.380234 -9.4835,-1.380234 -6.75414,0 -6.84253,0.01176 -7.04699,0.9375 -0.11388,0.515625 -0.69103,4.40625 -1.28257,8.645834 -1.34417,9.633909 -4.34415,27.709571 -6.21015,37.417843 -1.98128,10.308 -2.07585,11.0855 -1.41387,11.6237 0.94801,0.77074 1.97307,0.86031 10.41531,0.91012 l 8.19254,0.0483 0.28504,-1.77084 z m 162.60071,-2.20468 5.9375,-1.18902 0,-6.79273 c 0,-3.736 -0.0637,-6.79273 -0.14165,-6.79273 -0.0779,0 -1.81228,0.60436 -3.85416,1.34303 -3.42618,1.23944 -4.11422,1.34388 -8.92085,1.35416 -5.77839,0.0124 -7.64452,-0.39291 -10.49104,-2.27838 -2.00329,-1.32692 -4.34103,-4.262588 -3.92738,-4.931888 0.35151,-0.568771 4.99427,-1.603184 11.65243,-2.596184 15.55602,-2.32002 22.35007,-6.649633 24.04009,-15.319921 1.44631,-7.419981 -3.33332,-16.147526 -10.3222,-18.848212 -3.38157,-1.306731 -11.24117,-1.612701 -15.73639,-0.61261 -3.90321,0.86838 -9.58269,3.663045 -12.90931,6.352189 -10.23975,8.277524 -15.25771,22.574782 -12.10722,34.496146 2.34554,8.87549 7.46863,14.2449 15.7184,16.47414 4.48547,1.21206 13.06135,0.94414 21.06178,-0.65799 z m 51.91484,0.26537 c 2.25629,-0.46344 4.78754,-1.17762 5.625,-1.58707 L 397.08333,114 l 1.00778,-6.145 c 0.55429,-3.37975 0.91903,-6.23375 0.81055,-6.34222 -0.10848,-0.10848 -2.15573,0.36849 -4.54945,1.05993 -7.948,2.29584 -13.71791,2.40274 -18.11552,0.33561 -1.88797,-0.88744 -4.33179,-3.337228 -5.44094,-5.454195 -0.5834,-1.113513 -0.56988,-1.134879 0.97298,-1.537392 0.86053,-0.2245 4.82587,-0.902104 8.81185,-1.505779 11.85929,-1.796092 18.02667,-3.978529 21.7419,-7.693749 5.50945,-5.509454 5.31816,-16.068199 -0.40898,-22.574575 -3.18772,-3.62144 -8.13922,-5.330399 -15.48281,-5.343728 -5.24207,-0.0095 -8.28543,0.581104 -11.90893,2.311147 -3.70588,1.769371 -8.91099,5.598175 -11.43823,8.413793 -2.14724,2.39225 -6.05556,9.951371 -7.48467,14.476158 -1.28164,4.057883 -1.59435,12.236521 -0.612,16.00615 2.16941,8.32473 7.92666,14.42297 15.84647,16.785 3.34802,0.99852 13.15168,0.76263 19.10234,-0.45963 z M 272.44633,115.5625 c 0.11594,-0.40104 0.89332,-4.19792 1.72749,-8.4375 2.58987,-13.162721 4.62981,-20.5325 6.62638,-23.939374 2.37936,-4.060075 7.39736,-7.424351 11.88463,-7.967951 2.9959,-0.362932 3.61343,-0.714493 4.14597,-2.36031 0.53468,-1.652479 2.96087,-13.019345 2.96087,-13.871927 0,-1.280344 -6.87897,-0.501979 -10.20834,1.155089 -2.57106,1.279649 -5.75328,3.864582 -7.17719,5.830068 -3.33494,4.603372 -4.08947,4.583538 -3.68121,-0.09677 0.33563,-3.847543 0.0593,-4.278666 -3.19803,-4.988602 -3.05783,-0.666466 -7.51577,-1.009896 -8.82939,-0.680199 -1.42363,0.357309 -1.80613,1.421855 -2.55357,7.106931 -0.88058,6.697679 -2.42016,15.967211 -4.81327,28.979709 -1.159,6.302086 -2.43867,13.380216 -2.84371,15.729166 l -0.73644,4.27084 8.2425,0 c 7.4919,0 8.26169,-0.0664 8.45331,-0.72917 z m 148.33897,-3.75 c 2.56085,-15.380775 5.00457,-24.973295 7.95357,-31.22062 3.4888,-7.390886 7.84321,-9.908343 12.77846,-7.387691 2.89096,1.47654 2.67625,7.911967 -0.92312,27.670811 -1.80213,9.89296 -2.03213,13.45484 -0.94629,14.65469 0.61754,0.6824 1.44433,0.76198 7.91666,0.76198 3.97488,0 7.22709,-0.0907 7.22709,-0.20149 0,-0.11081 0.94275,-5.20425 2.095,-11.31874 4.04516,-21.466076 4.9105,-28.4459 4.17875,-33.706906 -0.87234,-6.271829 -3.9335,-10.266551 -9.08705,-11.858322 -6.29187,-1.943364 -12.4437,-0.376177 -20.65741,5.262505 -1.79434,1.231789 -3.34121,2.239616 -3.4375,2.239616 -0.0963,0 -0.17513,-1.182913 -0.17513,-2.628695 0,-4.170309 -0.13741,-4.255882 -6.73776,-4.195474 -7.04312,0.06446 -7.62488,0.283764 -8.22932,3.102172 -0.9949,4.639047 -9.19958,51.149144 -9.19958,52.149894 0,0.82015 2.31118,1.10419 9.18643,1.12902 l 7.31143,0.0264 0.74577,-4.47917 0,0 z"
     id="path4184"
     inkscape:connector-curvature="0"
     transform="scale(0.8,0.8)" />
</svg>
