<?xml version="1.0" encoding="UTF-8" standalone="no"?>
<svg
   xmlns:dc="http://purl.org/dc/elements/1.1/"
   xmlns:cc="http://creativecommons.org/ns#"
   xmlns:rdf="http://www.w3.org/1999/02/22-rdf-syntax-ns#"
   xmlns:svg="http://www.w3.org/2000/svg"
   xmlns="http://www.w3.org/2000/svg"
   xmlns:sodipodi="http://sodipodi.sourceforge.net/DTD/sodipodi-0.dtd"
   xmlns:inkscape="http://www.inkscape.org/namespaces/inkscape"
   version="1.0"
   width="300.000000pt"
   height="91.000000pt"
   viewBox="0 0 300.000000 91.000000"
   preserveAspectRatio="xMidYMid meet"
   id="svg2"
   inkscape:version="0.91 r13725"
   sodipodi:docname="fairgreen_logo.svg">
  <defs
     id="defs34" />
  <sodipodi:namedview
     pagecolor="#ffffff"
     bordercolor="#666666"
     borderopacity="1"
     objecttolerance="10"
     gridtolerance="10"
     guidetolerance="10"
     inkscape:pageopacity="0"
     inkscape:pageshadow="2"
     inkscape:window-width="1280"
     inkscape:window-height="962"
     id="namedview32"
     showgrid="false"
     inkscape:zoom="0.848"
     inkscape:cx="187.5"
     inkscape:cy="56.875"
     inkscape:window-x="-8"
     inkscape:window-y="-8"
     inkscape:window-maximized="1"
     inkscape:current-layer="svg2" />
  <metadata
     id="metadata4">
Created by potrace 1.10, written by Peter Selinger 2001-2011
<rdf:RDF>
  <cc:Work
     rdf:about="">
    <dc:format>image/svg+xml</dc:format>
    <dc:type
       rdf:resource="http://purl.org/dc/dcmitype/StillImage" />
  </cc:Work>
</rdf:RDF>
</metadata>
  <g
     transform="translate(0.000000,91.000000) scale(0.050000,-0.050000)"
     fill="#000000"
     stroke="none"
     id="g6"
     style="fill:#008000">
    <path
       d="M1765 1764 c-47 -18 -85 -44 -85 -58 0 -30 43 -35 71 -8 86 79 281 70 413 -19 94 -64 116 -71 116 -36 0 112 -334 191 -515 121z"
       id="path8"
       style="fill:#008000" />
    <path
       d="M1805 1650 c-36 -15 -65 -38 -65 -49 0 -28 46 -27 76 3 42 42 214 31 281 -19 67 -49 111 -59 98 -21 -29 87 -267 139 -390 86z"
       id="path10"
       style="fill:#008000" />
    <path
       d="M1881 1542 c-26 -7 -52 -25 -57 -39 -7 -21 0 -22 32 -5 59 32 145 27 186 -10 20 -18 47 -28 61 -24 75 25 -140 100 -222 78z"
       id="path12"
       style="fill:#008000" />
    <path
       d="M1880 1420 c-88 -88 16 -218 118 -147 52 36 54 110 5 154 -47 43 -74 42 -123 -7z"
       id="path14"
       style="fill:#008000" />
    <path
       d="M219 1185 c-68 -65 -174 -358 -134 -373 3 -1 123 1 268 4 l263 6 34 104 c60 186 142 254 308 254 115 0 112 -70 -6 -110 -137 -47 -204 -250 -82 -250 59 0 72 -6 62 -32 -7 -17 -12 -35 -12 -40 0 -4 -32 -8 -71 -8 -81 0 -76 8 -129 -239 -22 -104 -49 -198 -60 -209 -77 -77 -63 -78 1062 -68 930 7 1077 4 1045 -20 -26 -20 -71 -25 -158 -17 -126 11 -224 -78 -144 -132 120 -80 506 21 545 144 8 28 142 30 1319 25 1584 -7 1494 -25 1559 321 95 498 98 527 63 600 -58 122 42 116 -2021 110 l-1900 -5 -53 -160 c-29 -88 -82 -253 -117 -366 -35 -114 -67 -204 -70 -200 -4 3 10 159 31 345 26 243 31 347 15 365 -16 20 -185 26 -779 26 l-759 0 -79 -75z m539 -10 c-44 -29 -89 -88 -127 -169 l-59 -124 -217 -6 -217 -6 13 80 c35 215 125 270 447 270 l228 0 -68 -45z m1035 -100 c-6 -80 -21 -257 -32 -395 -11 -137 -26 -275 -32 -305 -9 -39 -4 -55 16 -55 19 0 75 147 173 450 l146 451 1887 -6 1888 -5 43 -43 c89 -89 -13 -715 -135 -830 l-50 -47 -1314 -10 c-722 -5 -1316 -8 -1320 -6 -7 4 102 622 130 739 24 101 -318 109 -497 13 -288 -156 -305 -646 -22 -646 73 0 186 49 186 81 0 10 10 19 22 19 23 0 14 -67 -23 -161 l-20 -51 -1055 8 c-580 5 -1055 10 -1057 11 -4 4 71 357 82 388 6 14 37 25 70 25 60 0 61 -1 58 -106 -5 -240 180 -365 372 -252 61 36 71 37 71 10 0 -26 23 -32 120 -32 119 0 120 1 120 57 0 31 22 187 50 345 27 158 50 298 50 311 0 12 -40 32 -89 45 -242 61 -480 -17 -603 -198 -27 -38 -48 -58 -48 -45 0 14 -26 25 -60 25 -69 0 -78 34 -28 111 24 36 51 49 99 49 62 0 113 102 93 185 -2 8 159 15 359 15 l363 0 -13 -145z m-141 -50 c17 -11 13 -64 -14 -195 -20 -99 -43 -245 -50 -325 l-14 -145 -67 0 c-63 0 -67 4 -67 70 0 82 -26 90 -71 21 -43 -66 -184 -119 -250 -94 -240 91 -146 527 141 651 73 32 352 43 392 17z m1315 -100 c21 -35 -53 -286 -99 -335 -109 -117 -215 -23 -168 149 37 139 218 265 267 186z"
       id="path16"
       style="fill:#008000" />
    <path
       d="M2359 1066 c-27 -18 -56 -43 -64 -55 -8 -12 -15 -1 -15 25 0 43 -7 46 -114 40 l-115 -6 -24 -180 c-14 -99 -39 -252 -56 -340 -47 -244 -52 -233 94 -226 l124 6 27 130 c48 231 63 274 117 327 29 29 73 53 98 53 47 0 69 42 99 195 16 77 -78 94 -171 31z m111 -105 c-11 -66 -22 -81 -57 -81 -111 0 -184 -110 -232 -350 l-31 -160 -87 -6 c-76 -6 -85 -2 -76 30 25 82 93 473 93 532 1 90 25 118 92 111 54 -7 58 -12 51 -82 -8 -95 7 -94 90 4 57 65 134 107 164 88 4 -2 1 -41 -7 -86z"
       id="path18"
       style="fill:#008000" />
    <path
       d="M3596 1066 c-29 -19 -64 -54 -78 -80 -34 -64 -59 -58 -46 11 11 52 6 58 -53 70 -106 21 -119 17 -119 -44 0 -31 -23 -181 -51 -333 -28 -152 -53 -286 -55 -298 -2 -13 38 -23 99 -25 l103 -4 31 163 c49 264 103 354 214 354 51 0 99 96 99 199 0 32 -83 24 -144 -13z"
       id="path20"
       style="fill:#008000" />
    <path
       d="M4038 1074 c-420 -156 -392 -719 35 -712 192 3 216 16 223 116 6 78 3 86 -30 72 -94 -40 -240 -36 -284 8 -64 64 -53 75 88 88 252 24 362 128 313 293 -40 133 -191 192 -345 135z m159 -161 c36 -42 -18 -95 -115 -113 -105 -19 -130 18 -61 91 50 54 141 65 176 22z"
       id="path22"
       style="fill:#008000" />
    <path
       d="M4725 1081 c-289 -69 -413 -536 -181 -682 70 -44 356 -49 394 -7 38 41 42 173 6 157 -107 -45 -240 -35 -298 23 l-56 58 140 15 c237 26 330 91 330 233 0 164 -140 249 -335 203z m151 -195 c8 -53 -37 -80 -146 -89 -70 -5 -79 -1 -74 34 16 103 207 151 220 55z"
       id="path24"
       style="fill:#008000" />
    <path
       d="M5470 1073 c-33 -15 -72 -42 -87 -60 -42 -49 -69 -40 -55 18 13 50 11 51 -81 45 l-95 -6 -24 -160 c-14 -88 -42 -244 -63 -346 -21 -102 -33 -189 -27 -193 23 -13 202 -9 202 5 1 204 112 516 190 536 122 30 132 -19 70 -322 -22 -107 -40 -203 -40 -213 0 -11 46 -16 103 -13 l104 6 48 249 c76 395 -12 559 -245 454z"
       id="path26"
       style="fill:#008000" />
    <path
       d="M1321 905 c-127 -65 -209 -314 -130 -394 110 -109 267 77 276 325 4 111 -32 128 -146 69z m99 -71 c0 -87 -61 -252 -104 -282 -102 -72 -149 45 -76 187 64 126 180 187 180 95z"
       id="path28"
       style="fill:#008000" />
    <path
       d="M103 722 c-32 -20 -82 -219 -83 -325 0 -125 51 -165 225 -174 230 -11 246 5 305 290 17 86 36 173 42 192 12 39 -431 54 -489 17z m437 -31 c0 -43 -86 -364 -103 -385 -31 -37 -309 -31 -348 8 -43 43 -19 293 36 361 19 24 415 39 415 16z"
       id="path30"
       style="fill:#008000" />
  </g>
</svg>
