<?xml version="1.0" standalone="no"?>
<!DOCTYPE svg PUBLIC "-//W3C//DTD SVG 20010904//EN"
 "http://www.w3.org/TR/2001/REC-SVG-20010904/DTD/svg10.dtd">
<svg version="1.0" xmlns="http://www.w3.org/2000/svg"
 width="1924.000000pt" height="1924.000000pt" viewBox="0 0 1924.000000 1924.000000"
 preserveAspectRatio="xMidYMid meet">
<metadata>
Created by potrace 1.11, written by Peter Selinger 2001-2013
</metadata>
<g transform="translate(0.000000,1924.000000) scale(0.100000,-0.100000)"
fill="#000000" stroke="none">
<path d="M6027 12423 c-2 -1 -30 -5 -63 -7 -89 -7 -161 -25 -249 -64 -157 -68
-275 -143 -275 -174 0 -18 116 -3 198 25 39 14 72 22 72 19 0 -4 4 -2 8 4 7
10 168 61 221 70 14 3 33 7 41 9 65 19 343 27 445 13 100 -14 228 -48 315 -85
71 -31 165 -76 170 -83 3 -4 15 -10 28 -14 12 -4 22 -12 22 -17 0 -5 6 -9 13
-9 6 0 23 -9 37 -20 126 -102 242 -165 263 -143 12 11 -21 61 -80 124 -62 65
-209 179 -232 179 -6 0 -11 3 -11 8 0 4 -27 18 -60 31 -33 13 -60 28 -60 33 0
5 -3 7 -7 5 -5 -3 -19 0 -33 6 -55 22 -212 63 -275 71 -27 3 -61 9 -75 12 -26
6 -408 13 -413 7z"/>
<path d="M6088 12035 c-2 -1 -25 -5 -53 -9 -49 -6 -156 -30 -185 -43 -8 -3
-17 -7 -20 -8 -33 -8 -130 -65 -157 -91 -75 -73 3 -71 167 4 36 16 83 35 105
42 22 6 47 14 55 17 8 3 22 7 30 8 8 1 35 6 60 10 76 13 231 12 310 -2 79 -15
186 -49 208 -65 6 -6 12 -8 12 -4 0 10 153 -84 218 -136 68 -53 142 -92 154
-80 9 9 -2 52 -13 52 -5 0 -9 5 -9 10 0 12 -66 73 -129 118 -72 52 -235 124
-306 135 -11 1 -25 6 -31 9 -5 4 -32 9 -58 13 -27 3 -53 8 -58 11 -9 6 -294
14 -300 9z"/>
<path d="M6015 11620 c-48 -19 -171 -107 -162 -116 4 -4 33 7 137 53 25 11 71
31 102 43 32 13 56 26 53 28 -13 14 -86 9 -130 -8z"/>
<path d="M6320 11630 c-12 -8 2 -22 34 -34 25 -9 88 12 83 27 -4 13 -98 19
-117 7z"/>
<path d="M6595 11530 c-7 -11 41 -60 106 -112 51 -41 47 -16 -10 52 -28 34
-51 58 -51 54 0 -5 -5 -3 -12 4 -15 15 -25 15 -33 2z"/>
<path d="M6161 11330 c-66 -22 -113 -60 -153 -125 -42 -68 -61 -140 -56 -214
12 -160 128 -255 307 -250 76 2 132 21 172 60 27 26 63 79 54 79 -3 0 -1 9 5
21 11 20 16 37 27 94 20 106 -18 212 -100 281 -74 62 -171 83 -256 54z"/>
<path d="M6613 10742 c-19 -3 -73 -69 -73 -91 0 -5 -4 -11 -9 -13 -10 -3 -109
-273 -190 -518 -28 -85 -54 -162 -58 -170 -3 -8 -7 -19 -9 -25 -1 -5 -23 -75
-49 -155 -26 -80 -78 -244 -117 -365 -38 -121 -80 -251 -93 -290 -13 -38 -42
-131 -66 -205 -23 -74 -45 -139 -48 -145 -3 -5 -6 -15 -7 -22 -8 -50 -158
-461 -179 -489 -13 -18 -14 -17 -10 6 2 14 6 59 10 100 3 41 7 95 10 120 6 70
17 182 20 215 3 33 15 155 20 195 1 14 5 50 8 80 14 120 18 167 22 212 1 25 5
59 8 75 3 15 9 64 12 107 4 43 8 87 10 97 2 10 6 55 10 101 3 46 8 97 10 113
2 17 7 59 10 95 3 36 8 76 10 90 2 14 7 59 10 100 3 41 8 93 10 115 16 169 22
415 11 460 -2 11 -5 30 -5 42 -1 12 -16 37 -34 56 -61 60 -164 71 -800 81
-158 3 -292 8 -297 11 -6 4 -10 3 -10 -2 0 -4 -39 -6 -87 -3 -132 7 -3244 5
-3348 -3 -160 -12 -226 -19 -258 -28 -17 -5 -33 -7 -35 -4 -5 5 -104 -44 -192
-96 -200 -117 -318 -289 -398 -579 -20 -73 -25 -91 -37 -155 -3 -16 -8 -41
-11 -55 -8 -34 -13 -60 -20 -95 -2 -16 -7 -41 -9 -55 -3 -14 -7 -36 -10 -50
-3 -14 -7 -38 -9 -55 -3 -16 -7 -46 -11 -65 -3 -19 -10 -63 -14 -97 -7 -63 -7
-63 18 -64 89 -3 343 1 351 6 6 3 10 1 10 -5 0 -6 5 -8 10 -5 6 4 147 9 313
11 166 3 394 7 507 9 113 2 255 4 315 5 l111 1 19 62 c10 34 19 64 20 67 1 3
14 46 30 95 16 50 29 92 30 95 13 41 82 207 112 270 93 192 243 368 382 448
64 37 229 104 249 101 4 -1 9 0 12 1 86 33 499 31 523 -3 14 -20 0 -207 -20
-266 -25 -75 -52 -93 -145 -97 -105 -5 -137 -10 -188 -30 -84 -32 -170 -112
-218 -203 -48 -89 -82 -161 -82 -173 0 -8 -4 -18 -8 -24 -9 -9 -52 -125 -93
-247 -15 -45 -20 -70 -13 -77 6 -6 36 -11 67 -13 31 -1 57 -4 57 -7 0 -3 51
-6 113 -6 187 -2 224 -31 192 -151 -31 -113 -71 -134 -270 -139 -138 -3 -160
-7 -187 -31 -31 -28 -67 -108 -82 -183 -3 -14 -12 -52 -20 -86 -8 -34 -17 -72
-20 -85 -23 -113 -86 -414 -90 -427 -3 -9 -8 -32 -11 -49 -3 -18 -14 -70 -26
-115 -11 -46 -22 -94 -25 -108 -3 -14 -14 -56 -25 -95 -11 -38 -22 -74 -23
-80 -31 -110 -44 -140 -78 -181 -21 -25 -38 -52 -38 -59 0 -33 43 -51 171 -70
95 -15 490 -28 856 -29 161 -1 293 -5 293 -9 0 -4 8 -3 19 2 10 6 21 8 23 5 3
-3 1002 -7 2219 -9 1218 -2 2347 -7 2509 -9 520 -9 720 -21 720 -45 0 -11 -56
-41 -64 -34 -3 3 -6 2 -6 -4 0 -20 -148 -45 -255 -44 -70 1 -202 8 -325 17
-58 4 -138 7 -179 8 l-74 1 -14 -40 c-7 -22 -16 -47 -20 -55 -3 -8 -7 -19 -8
-25 -2 -5 -26 -77 -54 -160 -28 -82 -47 -153 -43 -157 6 -6 62 -22 122 -34 14
-2 36 -9 50 -13 34 -13 92 -23 200 -35 19 -3 35 -5 35 -6 0 -5 411 -5 420 -1
6 3 26 6 45 7 50 2 150 13 185 20 17 3 44 7 60 8 39 4 91 15 135 28 34 11 45
13 65 17 87 18 304 217 420 386 38 55 73 102 77 103 4 2 8 9 8 16 0 7 10 22
23 33 22 20 24 20 1612 20 875 1 1595 2 1600 3 6 1 15 1 20 0 19 -4 2689 0
3470 5 1330 8 1687 15 1752 34 17 5 34 7 37 3 3 -3 6 0 6 6 0 7 11 12 25 12
14 0 29 8 35 20 6 11 14 19 18 18 19 -5 122 40 122 54 0 5 6 8 13 8 7 0 30 15
52 33 51 42 175 164 175 171 0 3 9 16 20 28 43 49 50 58 43 58 -5 0 -3 4 3 8
9 6 56 95 60 112 0 3 4 12 7 20 6 13 20 73 32 135 2 11 12 58 23 105 11 47 25
112 31 145 6 33 13 71 16 85 3 14 9 48 15 75 5 28 12 61 15 75 3 14 8 38 10
55 4 28 28 159 40 220 3 17 8 44 11 60 3 17 9 53 14 80 6 28 12 66 15 85 8 48
13 79 19 115 7 39 15 92 20 132 3 18 7 36 9 40 3 4 8 35 11 68 4 33 9 67 11
75 4 14 7 28 20 113 3 17 10 57 15 87 5 30 12 73 15 95 3 23 8 52 10 65 3 14
8 41 10 60 3 19 7 44 10 55 21 100 19 108 -43 237 -33 68 -74 153 -90 189 -16
36 -44 77 -62 92 -34 29 -90 61 -90 52 0 -3 -13 1 -28 9 -15 8 -48 17 -72 21
-25 4 -47 8 -50 10 -3 2 -30 6 -60 10 -30 3 -66 8 -80 10 -23 3 -59 6 -265 20
-468 33 -1264 37 -6770 39 -2695 0 -4910 0 -4922 -2z m-1606 -118 c-3 -3 -12
-4 -19 -1 -8 3 -5 6 6 6 11 1 17 -2 13 -5z m1593 -8 c0 -2 -8 -10 -17 -17 -16
-13 -17 -12 -4 4 13 16 21 21 21 13z m12341 -223 c13 -16 12 -17 -3 -4 -17 13
-22 21 -14 21 2 0 10 -8 17 -17z m47 -84 c-3 -8 -7 -3 -11 10 -4 17 -3 21 5
13 5 -5 8 -16 6 -23z m-13978 -238 c41 -6 102 -18 135 -27 33 -9 65 -17 70
-18 6 -2 28 -6 50 -11 22 -4 57 -16 78 -27 32 -16 37 -22 33 -46 -3 -15 -7
-49 -11 -77 -3 -27 -10 -75 -15 -105 -5 -30 -12 -77 -15 -105 -4 -27 -8 -57
-10 -65 -3 -8 -13 -67 -24 -130 -11 -63 -23 -127 -26 -142 -14 -74 -25 -136
-30 -177 -2 -14 -4 -26 -5 -26 -2 0 -9 -36 -14 -80 -3 -22 -10 -64 -16 -94 -5
-29 -7 -57 -4 -62 3 -5 1 -9 -4 -9 -5 0 -9 -6 -9 -12 0 -16 -11 -105 -17 -133
-9 -50 -16 -94 -21 -140 -4 -27 -8 -61 -11 -75 -2 -14 -7 -47 -9 -75 -3 -27
-8 -68 -11 -90 -9 -62 -12 -94 -18 -175 -24 -294 -26 -313 -32 -319 -3 -3
-122 -6 -265 -7 l-259 0 4 50 c3 28 5 51 6 51 2 0 3 9 19 113 10 64 9 218 -2
228 -17 17 -93 -45 -172 -141 -92 -111 -188 -197 -276 -249 -102 -59 -269
-104 -369 -99 -119 7 -211 33 -307 89 -73 41 -183 159 -220 234 -33 65 -76
180 -68 180 3 0 1 10 -4 23 -21 55 -31 268 -18 398 26 265 146 558 323 788 54
69 231 234 310 288 115 78 344 195 344 176 0 -3 6 0 14 6 12 10 160 57 211 67
11 2 31 6 45 9 29 6 76 13 139 20 25 3 46 7 48 9 9 9 362 -2 433 -13z m2952 3
c30 -15 30 -18 24 -67 -3 -29 -8 -63 -11 -77 -3 -14 -7 -38 -9 -55 -11 -76
-57 -259 -77 -305 -26 -61 -42 -71 -128 -77 -265 -18 -440 -179 -581 -533 -12
-30 -26 -64 -31 -75 -7 -18 -52 -172 -64 -221 -3 -10 -11 -46 -19 -79 -8 -33
-17 -73 -20 -90 -3 -16 -10 -52 -16 -80 -6 -27 -13 -66 -16 -85 -2 -19 -11
-71 -19 -115 -27 -142 -65 -358 -65 -365 0 -9 -463 -4 -505 5 -16 3 -41 13
-53 21 -22 14 -23 20 -17 72 9 80 20 149 26 162 1 3 3 10 4 15 4 30 19 111 21
120 1 6 5 26 9 45 3 19 15 80 26 135 11 55 21 109 23 120 2 11 6 34 9 50 4 17
8 41 11 55 5 34 25 139 31 170 3 14 7 39 10 55 3 17 8 42 11 57 3 15 7 39 9
55 4 30 10 64 26 155 5 32 12 70 15 85 2 16 7 44 10 63 10 61 13 74 18 115 4
22 8 51 11 65 6 33 16 99 20 130 6 48 26 179 30 200 2 12 7 48 10 79 10 93 16
131 24 136 19 11 99 17 292 20 l206 3 -2 -26 c-4 -38 -15 -122 -20 -152 -9
-59 -14 -103 -30 -255 -4 -33 -9 -69 -12 -80 -4 -15 1 -13 23 11 28 30 108
125 129 153 5 7 57 61 115 120 139 142 224 200 368 250 89 31 144 36 184 15z
m11065 -16 c-3 -8 -6 -5 -6 6 -1 11 2 17 5 13 3 -3 4 -12 1 -19z m-2 -47 c3
-5 2 -12 -3 -15 -5 -3 -9 1 -9 9 0 17 3 19 12 6z m-11699 -126 c-23 -17 -36
-19 -36 -6 0 5 10 12 23 14 12 2 24 5 27 5 3 1 -4 -5 -14 -13z m2187 -245 c3
-11 2 -18 -3 -15 -4 3 -10 14 -13 25 -3 11 -2 18 3 15 4 -3 10 -14 13 -25z
m6077 -35 c14 -19 14 -19 -2 -6 -10 7 -18 18 -18 24 0 6 1 8 3 6 1 -2 9 -13
17 -24z m-15158 -100 c-6 -34 -12 -32 -12 6 0 16 4 28 9 25 4 -3 6 -17 3 -31z
m11128 -5 c-8 -5 -19 -10 -25 -10 -5 0 -3 5 5 10 8 5 20 10 25 10 6 0 3 -5 -5
-10z m4061 -41 c-5 -13 -10 -19 -10 -12 -1 15 10 45 15 40 3 -2 0 -15 -5 -28z
m-4135 6 c-11 -8 -25 -15 -30 -15 -6 1 0 7 14 15 32 19 40 18 16 0z m-10956
-9 c-4 -4 -16 -4 -26 2 -16 9 -14 10 8 9 15 -1 23 -6 18 -11z m323 3 c108 -2
197 -5 197 -9 0 -4 -93 -6 -207 -5 -287 4 -293 4 -293 13 0 4 24 6 52 5 29 -1
142 -3 251 -4z m1021 -10 c3 -3 -179 -5 -404 -5 -226 0 -410 2 -410 5 0 8 806
8 814 0z m10873 -141 c-3 -8 -6 -5 -6 6 -1 11 2 17 5 13 3 -3 4 -12 1 -19z
m-5564 -623 c-3 -9 -8 -14 -10 -11 -3 3 -2 9 2 15 9 16 15 13 8 -4z m-12 -48
c-10 -9 -11 -8 -5 6 3 10 9 15 12 12 3 -3 0 -11 -7 -18z m5916 -263 c-3 -3
-12 -4 -19 -1 -8 3 -5 6 6 6 11 1 17 -2 13 -5z m28 -4 c3 -5 1 -10 -4 -10 -6
0 -11 5 -11 10 0 6 2 10 4 10 3 0 8 -4 11 -10z m182 -4 c7 -7 -1 -8 -72 -8
-80 0 -95 2 -95 10 0 9 158 7 167 -2z m48 4 c17 -8 16 -8 -7 -7 -16 1 -28 5
-28 9 0 10 9 9 35 -2z m-4075 -189 c0 -5 -10 -11 -22 -14 -22 -6 -22 -6 -4 8
23 17 26 18 26 6z m-60 -25 c0 -2 -8 -10 -17 -17 -16 -13 -17 -12 -4 4 13 16
21 21 21 13z m9373 -271 c-3 -9 -8 -14 -10 -11 -3 3 -2 9 2 15 9 16 15 13 8
-4z m-8750 -337 c60 -2 60 -2 13 -5 -61 -5 -99 3 -90 19 6 9 9 9 12 0 2 -7 28
-13 65 -14z m8390 7 c-3 -9 -8 -14 -10 -11 -3 3 -2 9 2 15 9 16 15 13 8 -4z
m-8260 -12 c-7 -2 -19 -2 -25 0 -7 3 -2 5 12 5 14 0 19 -2 13 -5z m80 0 c-7
-2 -19 -2 -25 0 -7 3 -2 5 12 5 14 0 19 -2 13 -5z m74 1 c-3 -3 -12 -4 -19 -1
-8 3 -5 6 6 6 11 1 17 -2 13 -5z m126 -1 c-7 -2 -19 -2 -25 0 -7 3 -2 5 12 5
14 0 19 -2 13 -5z m7882 -42 c3 -5 1 -12 -4 -15 -5 -3 -11 1 -15 9 -6 16 9 21
19 6z"/>
<path d="M4466 9643 c-2 -2 -28 -6 -57 -8 -30 -3 -63 -9 -74 -14 -34 -16 -60
-24 -67 -23 -5 1 -8 -2 -8 -8 0 -5 -6 -10 -12 -10 -26 0 -183 -143 -249 -225
-136 -170 -232 -392 -255 -595 -10 -88 1 -256 17 -266 5 -3 9 -14 9 -25 0 -28
60 -119 101 -153 131 -111 290 -86 445 68 69 70 134 154 134 175 0 6 4 11 8
11 15 0 127 251 147 330 1 3 4 12 8 20 7 19 44 173 53 220 11 67 14 85 19 120
2 19 6 49 9 65 3 17 8 50 11 75 3 25 7 52 10 60 13 46 15 137 3 152 -12 17
-80 32 -123 28 -24 -2 -27 -1 -83 3 -23 2 -44 1 -46 0z m-286 -217 c0 -2 -8
-10 -17 -17 -16 -13 -17 -12 -4 4 13 16 21 21 21 13z"/>
<path d="M946 9042 c-2 -1 -79 -4 -172 -7 -161 -4 -253 -10 -319 -21 -90 -15
-155 -44 -155 -69 0 -7 -4 -15 -8 -17 -11 -4 -47 -85 -67 -149 -9 -30 -19 -61
-22 -69 -9 -24 -10 -28 -37 -161 -14 -69 -28 -148 -32 -175 -3 -27 -8 -60 -10
-74 -22 -156 -25 -530 -4 -565 3 -5 7 -23 9 -39 11 -108 148 -192 371 -230
180 -31 507 -36 715 -12 16 2 72 12 115 21 29 6 94 34 130 56 80 49 126 120
153 236 28 118 69 307 73 333 2 14 20 99 39 190 20 91 38 173 40 183 2 10 6
26 9 35 3 9 8 32 11 49 3 18 12 63 21 100 9 38 18 79 20 93 3 14 9 39 14 55 5
17 11 44 14 60 9 55 17 90 22 105 3 8 8 27 11 43 3 21 0 27 -14 28 -42 3 -925
4 -927 1z m489 -62 c3 -6 -1 -7 -9 -4 -18 7 -21 14 -7 14 6 0 13 -4 16 -10z
m45 6 c0 -2 -7 -6 -15 -10 -8 -3 -15 -1 -15 4 0 6 7 10 15 10 8 0 15 -2 15 -4z
m85 -4 c-8 -8 -55 -11 -55 -3 0 4 14 8 30 8 17 0 28 -2 25 -5z m78 -9 c-7 -2
-19 -2 -25 0 -7 3 -2 5 12 5 14 0 19 -2 13 -5z m-1456 -945 c-3 -8 -6 -5 -6 6
-1 11 2 17 5 13 3 -3 4 -12 1 -19z m1320 -270 c-3 -8 -6 -5 -6 6 -1 11 2 17 5
13 3 -3 4 -12 1 -19z m-462 -209 c2 -3 -8 -5 -25 -5 -16 0 -27 3 -25 6 5 8 42
6 50 -1z m-242 -6 c-7 -2 -19 -2 -25 0 -7 3 -2 5 12 5 14 0 19 -2 13 -5z m75
0 c-10 -2 -28 -2 -40 0 -13 2 -5 4 17 4 22 1 32 -1 23 -4z m85 0 c-13 -2 -33
-2 -45 0 -13 2 -3 4 22 4 25 0 35 -2 23 -4z"/>
</g>
</svg>
